<svg width="129" height="36" viewBox="0 0 129 36" fill="none" xmlns="http://www.w3.org/2000/svg">
<path fill-rule="evenodd" clip-rule="evenodd" d="M8.9887 18.166V9C9.3755 9.09089 9.75564 9.37725 10.1148 9.64778C10.2837 9.77507 10.4481 9.89886 10.6062 9.99713C10.6421 10.0194 10.6827 10.0424 10.7253 10.0664C10.895 10.1623 11.0968 10.2763 11.1633 10.442C11.2825 10.7394 11.2471 11.1936 11.2158 11.5948C11.2027 11.7627 11.1903 11.9214 11.1903 12.0553V15.8745C12.6032 14.8274 14.1686 14.2289 15.9531 14.3994C20.2986 14.8146 22.8015 19.5377 21.0165 23.423C18.9096 28.0088 12.1421 28.1199 9.7664 23.7375C8.9471 22.2262 8.96523 20.5627 8.98336 18.8996C8.98603 18.6549 8.9887 18.4102 8.9887 18.166ZM36.2172 17.6269V9L37.8348 10.0035L38.3918 10.4461L38.4189 11.651V14.3918H42.0583V16.5934H38.4189C38.4189 16.9954 38.4054 17.4151 38.3916 17.8434C38.3099 20.3895 38.2185 23.238 40.8901 24.4424C41.397 24.671 41.9188 24.7364 42.4598 24.8042L42.5526 24.8159V26.9726C39.7732 26.9726 37.2376 25.2006 36.4611 22.4795C36.124 21.2981 36.1604 20.0091 36.1958 18.7568V18.7568V18.7568V18.7567V18.7567V18.7566V18.7566V18.7565V18.7565V18.7565V18.7564V18.7564C36.2065 18.3751 36.2172 17.9973 36.2172 17.6269ZM44.3496 9V18.1211C44.3496 18.3647 44.3472 18.6079 44.3447 18.8504C44.3273 20.5711 44.3103 22.2586 45.1724 23.8274C45.5199 24.4598 45.9988 25.0323 46.5513 25.4935C49.7962 28.2022 54.7868 27.0287 56.4874 23.1534C58.007 19.6902 55.9231 15.5439 52.3025 14.5785C50.2709 14.0367 48.175 14.5859 46.5513 15.8745V12.0553C46.5513 11.9241 46.5639 11.7665 46.5772 11.599C46.6094 11.1967 46.6462 10.7369 46.5242 10.4461C46.4604 10.2941 46.2691 10.1827 46.106 10.0878L46.1057 10.0876C46.0554 10.0583 46.0075 10.0304 45.9671 10.0035C45.8338 9.9146 45.6926 9.80743 45.5461 9.69622C45.1677 9.40906 44.754 9.09502 44.3496 9ZM58.3683 17.6269V9C58.7769 9.13018 59.1742 9.42573 59.5494 9.70482C59.6986 9.81577 59.8443 9.92413 59.9858 10.0185C60.0267 10.0457 60.0758 10.0741 60.1278 10.1042C60.2889 10.1973 60.4784 10.3068 60.5429 10.4524C60.6231 10.6342 60.6022 10.9143 60.584 11.1597C60.5767 11.2567 60.5699 11.3484 60.5699 11.4263V18.84C60.5699 19.0769 60.5606 19.3222 60.5512 19.571C60.525 20.2638 60.4977 20.9838 60.667 21.6258C61.1702 23.5375 62.7949 24.6653 64.7036 24.8159V26.9726C61.9533 26.9726 59.3846 25.2321 58.6122 22.5244C58.2726 21.3342 58.3098 20.0365 58.3461 18.7746C58.3572 18.3873 58.3683 18.0033 58.3683 17.6269ZM90.8987 9V26.8378H93.1003V24.2767L93.1255 23.1085L93.6845 22.3447L94.8976 20.8619C94.9999 21.2164 95.1982 21.5553 95.3924 21.8872C95.4824 22.0408 95.5716 22.1932 95.6498 22.3447L95.7155 22.472C96.2139 23.4374 96.7135 24.4051 97.2403 25.3551C97.305 25.4718 97.3723 25.6338 97.4452 25.8091C97.6105 26.2068 97.8043 26.6733 98.0603 26.8366C98.1947 26.9223 98.4302 26.9057 98.6265 26.8918C98.6928 26.8871 98.7547 26.8828 98.8066 26.8828H100.604C100.47 26.4186 100.199 25.9653 99.9374 25.5276C99.8297 25.3475 99.7236 25.1701 99.6293 24.9956C99.5158 24.7857 99.4021 24.5758 99.2884 24.3658L99.2878 24.3647L99.2847 24.3591L99.2791 24.3488L99.2791 24.3486L99.279 24.3485L99.2789 24.3484L99.2789 24.3483L99.2788 24.3481L99.2787 24.348L99.2787 24.3479L99.2786 24.3477C98.6758 23.235 98.0721 22.1206 97.492 20.9967C97.2426 20.5136 96.9811 20.0326 96.7137 19.5589C96.6971 19.5294 96.6755 19.4947 96.6518 19.4566C96.5557 19.3023 96.4251 19.0926 96.4536 18.9489C96.5086 18.6705 96.8417 18.3214 97.1187 18.0311C97.2305 17.9139 97.3332 17.8063 97.4048 17.7167L99.1751 15.5151C99.2575 15.412 99.3459 15.3089 99.4353 15.2048L99.4354 15.2047L99.4354 15.2046C99.6684 14.9331 99.9079 14.6539 100.065 14.3469H98.0877C98.0255 14.3469 97.9533 14.3419 97.8766 14.3367C97.6572 14.3217 97.4015 14.3043 97.2417 14.393C96.9077 14.5786 96.6015 15.0293 96.3313 15.4269C96.2183 15.5931 96.1116 15.7501 96.0119 15.8745C95.722 16.2362 95.4361 16.6048 95.1495 16.9742C94.4886 17.8262 93.8243 18.6826 93.1003 19.4691V11.2466L93.0734 10.4524L92.5162 10.0185L90.8987 9ZM114.353 26.8378V14.3469H116.555V15.8745C117.714 14.8709 119.17 14.3918 120.688 14.3918V16.5934C118.869 16.5934 117.184 17.8249 116.696 19.6038C116.512 20.2776 116.529 20.9958 116.545 21.7007V21.7018V21.7021V21.7025V21.7028V21.7032V21.7036V21.7039V21.7043C116.55 21.9043 116.555 22.1032 116.555 22.2997V26.8378H114.353ZM33.6112 20.6824H35.1389C35.1389 21.5842 34.9983 22.4649 34.6096 23.2885C32.8167 27.0867 27.5774 28.3158 24.4901 25.2653C24.0671 24.8473 23.669 24.397 23.3808 23.8726C22.9551 23.0978 22.676 22.2801 22.5709 21.4013C22.4871 20.7005 22.5424 19.9312 22.6935 19.2446C23.5936 15.154 28.3069 13.2469 31.9038 15.146C32.6133 15.5206 33.2508 16.0603 33.7548 16.6835C34.2248 17.2648 34.6704 17.9784 34.8693 18.7054C33.8091 19.3242 32.714 19.8889 31.6197 20.4532L31.6196 20.4533C30.9475 20.7999 30.2756 21.1463 29.6123 21.5051C29.2528 21.6995 28.8897 21.9114 28.5228 22.1254C27.663 22.6272 26.783 23.1407 25.883 23.4682C27.4556 25.5246 30.7894 25.01 32.1717 23.0638C32.4968 22.6059 32.7435 22.086 32.8626 21.5361C32.8754 21.477 32.8804 21.3873 32.8858 21.2883V21.2883V21.2882V21.2882C32.8978 21.0723 32.9123 20.8121 33.0155 20.7286C33.1139 20.649 33.3167 20.6637 33.4769 20.6754C33.5274 20.6791 33.5737 20.6824 33.6112 20.6824ZM70.7247 14.4111C69.7236 14.5474 68.7899 14.8575 67.9389 15.4117C67.2879 15.8357 66.7091 16.4071 66.2639 17.043C63.8097 20.549 65.6173 25.7408 69.8261 26.7978C70.5661 26.9837 71.4023 27.0509 72.1625 26.96C73.0903 26.8491 73.9683 26.5484 74.7685 26.065C75.4016 25.6828 75.9646 25.1719 76.4216 24.5915C79.206 21.0552 77.331 15.6384 72.9713 14.555C72.2631 14.379 71.4508 14.3123 70.7247 14.4111ZM84.3387 14.4103C83.3273 14.5447 82.3576 14.8626 81.508 15.4401C80.7738 15.939 80.1281 16.5971 79.6658 17.3567C77.7836 20.4499 78.8984 24.564 82.0921 26.2842C83.0779 26.8151 84.136 26.972 85.2373 26.972C86.0537 26.972 86.8733 26.8053 87.6187 26.4639C87.6651 26.4427 87.7182 26.4191 87.7763 26.3933C88.2553 26.1805 89.071 25.8182 89.2281 25.3954C89.2807 25.2551 89.1438 25.1076 89.0436 24.9995C89.0273 24.9819 89.0119 24.9654 88.9985 24.9501C88.9203 24.8607 88.8361 24.7546 88.7473 24.6426C88.5002 24.3311 88.2176 23.9749 87.9314 23.8116C87.7859 23.7285 87.6565 23.8308 87.5408 23.9223C87.5215 23.9376 87.5025 23.9526 87.4839 23.9664C87.1918 24.1828 86.8773 24.3629 86.5403 24.5001C85.6349 24.8691 84.6298 24.8803 83.7096 24.5594C83.232 24.3928 82.7935 24.1329 82.4066 23.8071C80.098 21.8619 80.6907 18.2515 83.3502 16.9639C84.3625 16.4738 85.5496 16.47 86.5853 16.8896C86.8701 17.005 87.1424 17.1544 87.394 17.3315C87.4222 17.3513 87.4529 17.377 87.4855 17.4044C87.5797 17.4835 87.6894 17.5755 87.7966 17.5727C87.9114 17.5697 88.0121 17.445 88.0935 17.3443C88.1169 17.3153 88.1387 17.2884 88.1588 17.2668C88.2181 17.2033 88.3046 17.1218 88.4028 17.0293C88.7252 16.7256 89.1732 16.3036 89.1967 16.0128C89.2171 15.7567 88.6328 15.437 88.3272 15.2698C88.2769 15.2422 88.2341 15.2188 88.2028 15.2005C87.0737 14.5398 85.6408 14.2372 84.3387 14.4103ZM110.983 20.6816H113.185C113.185 25.4902 107.753 28.608 103.614 26.1092C102.953 25.7101 102.366 25.201 101.892 24.5907C99.9771 22.1235 100.146 18.4011 102.402 16.1902C103.412 15.2001 104.696 14.6163 106.086 14.4172C106.869 14.305 107.749 14.3745 108.512 14.5779C110.049 14.9876 111.325 15.9433 112.196 17.2668L112.215 17.295L112.257 17.3577C112.477 17.6835 112.963 18.4047 112.819 18.6876C112.695 18.9341 112.203 19.1421 111.823 19.3033C111.686 19.3613 111.563 19.4132 111.477 19.4586C111.167 19.6223 110.855 19.7852 110.544 19.948L110.544 19.948C109.652 20.4143 108.758 20.8813 107.883 21.3746C107.372 21.6625 106.851 21.9343 106.331 22.2056L106.331 22.2057L106.33 22.206C105.978 22.3898 105.626 22.5735 105.277 22.7624C105.157 22.8274 105.035 22.8986 104.912 22.9707C104.581 23.1648 104.239 23.365 103.884 23.4674C104.689 24.27 105.701 24.773 106.849 24.8037C109.06 24.8627 110.982 22.8485 110.983 20.6816ZM13.1225 17.2048C13.6213 16.901 14.1614 16.6952 14.74 16.6123C18.2084 16.1155 20.6912 20.1482 18.6991 23.0183C18.3894 23.4646 17.9832 23.8611 17.5258 24.1552C17.0422 24.466 16.4761 24.6691 15.9082 24.7514C12.3645 25.2648 9.84016 21.0818 12.0286 18.2106C12.3341 17.8098 12.6904 17.4681 13.1225 17.2048ZM27.2759 20.2441L24.8047 21.5356C24.735 19.9135 24.9556 18.51 26.3323 17.4319C27.5381 16.4876 29.2721 16.3098 30.6458 16.9865C31.0354 17.1785 31.5663 17.4508 31.7691 17.8512L27.2759 20.2441ZM48.4387 17.2246C48.9453 16.9015 49.5065 16.6975 50.1011 16.6123C50.6121 16.5391 51.1754 16.5752 51.6737 16.6998C55.1132 17.5599 55.8375 22.2359 52.8869 24.1477C52.4039 24.4608 51.8391 24.6696 51.2694 24.7514C47.7706 25.254 45.242 21.2014 47.3113 18.3005C47.6166 17.8725 47.9949 17.5076 48.4387 17.2246ZM69.242 17.2086C69.725 16.898 70.292 16.6937 70.8595 16.6123C74.392 16.1063 76.7927 20.1766 74.7978 23.0632C74.4819 23.5202 74.0721 23.8925 73.6003 24.1836C73.1268 24.4758 72.5808 24.6849 72.0277 24.7577C68.5716 25.2123 66.0285 21.2494 68.0612 18.3454C68.3806 17.8891 68.7729 17.5101 69.242 17.2086ZM109.815 17.8512L102.851 21.5356C102.584 20.1057 103.01 18.6231 104.109 17.6342C105.571 16.3174 108.551 16.0611 109.815 17.8512Z" fill="#557086"/>
</svg>
