<svg fill="#b1b1b1" viewBox="0 0 64 64" class="svg-icon " style=""> <title></title> <path d="M12.265 47.726.21 14.603a3.574 3.574 0 0 1 2.108-4.553l.024-.007 19.282-7.015a3.55 3.55 0 0 1 4.553 2.082l.008.024.694 1.92L12.69 46.073a8.9 8.9 0 0 0-.418 1.598l-.008.056ZM63.79 15.511 48.002 58.93a3.529 3.529 0 0 1-4.558 2.1l.024.009-21.948-8.001a3.58 3.58 0 0 1-2.124-4.585l-.008.024 15.787-43.39a3.555 3.555 0 0 1 4.559-2.126l-.024-.008 21.948 8a3.58 3.58 0 0 1 2.124 4.585l.008-.024v-.002ZM50.457 32.685l-1.386-3.254a1.789 1.789 0 0 0-2.333-.956l.012-.004-2.666 1.174a1.787 1.787 0 0 1-2.316-.948l-.004-.012-1.146-2.667a1.764 1.764 0 0 0-2.332-.93l.012-.004-3.28 1.386a1.738 1.738 0 0 0-.929 2.33l-.004-.01 3.92 9.255a1.816 1.816 0 0 0 2.359.928l-.012.005 9.227-3.947a1.737 1.737 0 0 0 .794-2.356l.004.01h.08Z"></path></svg>