<svg xmlns="http://www.w3.org/2000/svg" width="48" height="48" fill="none" viewBox="0 0 48 48" id="line"><rect width="48" height="48" fill="#00B900" rx="24"></rect><path fill="#fff" fill-rule="evenodd" d="M40 22.8016C40 15.6421 32.8227 9.81744 23.9998 9.81744C15.1782 9.81744 8 15.6421 8 22.8016C8 29.2201 13.6921 34.5954 21.3811 35.6118C21.9022 35.7241 22.6113 35.9554 22.7907 36.4007C22.9521 36.8053 22.8963 37.439 22.8423 37.8475C22.8423 37.8475 22.6546 38.9766 22.6141 39.217L22.6079 39.2527C22.5319 39.6858 22.3403 40.779 23.9998 40.0796C25.7077 39.36 33.2144 34.6539 36.5712 30.7902H36.5705C38.8894 28.2474 40 25.667 40 22.8016ZM20.7491 19.3419H19.6268C19.4547 19.3419 19.3148 19.4814 19.3148 19.6529V26.6247C19.3148 26.7964 19.4547 26.9357 19.6268 26.9357H20.7491C20.9211 26.9357 21.0607 26.7964 21.0607 26.6247V19.6529C21.0607 19.4814 20.9211 19.3419 20.7491 19.3419ZM27.3516 19.3419H28.4738C28.6462 19.3419 28.7855 19.4814 28.7855 19.6529V26.6247C28.7855 26.7964 28.6462 26.9357 28.4738 26.9357H27.3516C27.3239 26.9357 27.2973 26.9317 27.2718 26.9249C27.2703 26.9246 27.2687 26.924 27.2672 26.924L27.2544 26.92L27.246 26.917C27.243 26.9161 27.2399 26.9148 27.2368 26.9136L27.2276 26.9097L27.2215 26.9072C27.2166 26.905 27.2114 26.9026 27.2068 26.8998L27.2009 26.8969L27.1979 26.8952C27.1914 26.8915 27.185 26.8875 27.1786 26.8835L27.1774 26.8825L27.1755 26.8811C27.1457 26.8608 27.1184 26.8354 27.0964 26.8041L23.8976 22.4839V26.6247C23.8976 26.7964 23.758 26.9357 23.5856 26.9357H22.4636C22.2916 26.9357 22.1517 26.7964 22.1517 26.6247V19.6529C22.1517 19.4814 22.2916 19.3419 22.4636 19.3419H23.5856L23.5911 19.3422L23.5967 19.3425L23.6019 19.3427H23.602C23.6056 19.3428 23.6091 19.343 23.6126 19.3434L23.6214 19.3443C23.624 19.3446 23.6266 19.345 23.6292 19.3455C23.6335 19.3458 23.6381 19.3465 23.6424 19.3471L23.6502 19.3488L23.6602 19.3511L23.6653 19.3525L23.6709 19.3541C23.6773 19.3557 23.6835 19.3578 23.6896 19.36L23.6997 19.3636C23.7059 19.3658 23.7117 19.3685 23.7175 19.3713L23.7197 19.3722L23.7236 19.3741L23.7273 19.3759C23.7328 19.3787 23.7384 19.382 23.7439 19.3854C23.7473 19.3869 23.7503 19.3888 23.7534 19.3909C23.7568 19.393 23.7601 19.3953 23.7634 19.3976L23.7697 19.402L23.7719 19.4037L23.7735 19.4049C23.7749 19.406 23.7763 19.4071 23.7776 19.4084C23.7835 19.4127 23.789 19.4173 23.7942 19.4222C23.7963 19.4241 23.7982 19.4256 23.8 19.4274C23.8065 19.4336 23.8126 19.4397 23.8187 19.4468L23.8209 19.4486C23.8295 19.4587 23.8377 19.4691 23.8451 19.4802L27.0399 23.7948V19.6529C27.0399 19.4814 27.1795 19.3419 27.3516 19.3419ZM18.0438 25.19H14.9943V19.6533C14.9943 19.4813 14.8548 19.3417 14.683 19.3417H13.5604C13.3883 19.3417 13.2488 19.4813 13.2488 19.6533V26.6239V26.6245C13.2488 26.7082 13.2822 26.784 13.3359 26.8398C13.3371 26.8414 13.3383 26.8429 13.3402 26.8444L13.3448 26.8487C13.4009 26.9027 13.4764 26.9358 13.5601 26.9358H13.5604H18.0438C18.2158 26.9358 18.3548 26.796 18.3548 26.6239V25.5016C18.3548 25.3295 18.2158 25.19 18.0438 25.19ZM34.9826 20.7759C34.9826 20.9483 34.8436 21.0875 34.6716 21.0875H31.6224V22.2657H34.6716C34.8436 22.2657 34.9826 22.4055 34.9826 22.5776V23.6999C34.9826 23.872 34.8436 24.0115 34.6716 24.0115H31.6224V25.1899H34.6716C34.8436 25.1899 34.9826 25.3298 34.9826 25.5016V26.6242C34.9826 26.7959 34.8436 26.9358 34.6716 26.9358H30.1882H30.1876C30.1042 26.9358 30.0284 26.9024 29.9726 26.8487C29.971 26.8475 29.9692 26.8459 29.968 26.8444C29.9664 26.8432 29.9649 26.8413 29.9637 26.8398C29.91 26.784 29.8766 26.7082 29.8766 26.6245V26.6242V19.6536V19.6533C29.8766 19.5699 29.9097 19.4944 29.9631 19.4386C29.9646 19.4368 29.9661 19.4349 29.968 19.4331C29.9689 19.4319 29.9704 19.4309 29.9717 19.4297C30.0278 19.3754 30.1035 19.3417 30.1876 19.3417H30.1882H34.6716C34.8436 19.3417 34.9826 19.4815 34.9826 19.6536V20.7759Z" clip-rule="evenodd"></path></svg>