<svg id="layer-google-logo" xmlns="http://www.w3.org/2000/svg" xmlns:xlink="http://www.w3.org/1999/xlink" viewBox="0 0 16 16" class="svelte-7etqum"><defs><style>.cls-google-logo-1 {
        -webkit-clip-path: url(#clip-google-logo);
                clip-path: url(#clip-google-logo);
      }
      .cls-google-logo-2 {
        fill: none;
      }
      .cls-google-logo-2,
      .cls-google-logo-3,
      .cls-google-logo-4,
      .cls-google-logo-5,
      .cls-google-logo-6 {
        stroke-width: 0px;
      }
      .cls-google-logo-3 {
        fill: #34a853;
      }
      .cls-google-logo-4 {
        fill: #4285f4;
      }
      .cls-google-logo-5 {
        fill: #e94235;
      }
      .cls-google-logo-6 {
        fill: #fbbc04;
      }
    </style><clipPath id="clip-google-logo"><rect class="cls-google-logo-2" width="16" height="16"></rect></clipPath></defs><g id="layer-google-logo-2"><g class="cls-google-logo-1"><path class="cls-google-logo-4" d="M15.68,8.18c0-.57-.05-1.11-.15-1.64h-7.53v3.09h4.31c-.19,1-.75,1.85-1.6,2.41v2.01h2.59c1.51-1.39,2.39-3.44,2.39-5.88Z"></path><path class="cls-google-logo-3" d="M8,16c2.16,0,3.97-.72,5.29-1.94l-2.59-2.01c-.72.48-1.63.76-2.71.76-2.08,0-3.85-1.41-4.48-3.3H.85v2.07c1.32,2.61,4.02,4.41,7.15,4.41Z"></path><path class="cls-google-logo-6" d="M3.52,9.52c-.16-.48-.25-.99-.25-1.52s.09-1.04.25-1.52v-2.07H.85c-.54,1.08-.85,2.3-.85,3.59s.31,2.51.85,3.59l2.67-2.07Z"></path><path class="cls-google-logo-5" d="M8,3.18c1.17,0,2.23.4,3.06,1.2l2.29-2.29c-1.39-1.29-3.2-2.08-5.35-2.08C4.87,0,2.17,1.79.85,4.41l2.67,2.07c.63-1.89,2.39-3.3,4.48-3.3Z"></path></g></g></svg>