<svg width="76" height="32" viewBox="0 0 76 32" fill="none" xmlns="http://www.w3.org/2000/svg">
<g id="c">
<path id="Vector" d="M29.3958 18.8339H26.5634V17.2093C25.6696 18.3654 24.1291 19.0304 22.5138 19.0304C19.3093 19.0304 16.875 17.037 16.875 13.2467V5.27315H19.6814V12.8296C19.6814 15.3157 21.0481 16.5958 23.1086 16.5958C25.1691 16.5958 26.5601 15.3157 26.5601 12.8296V5.27315H29.3926V18.8339H29.3958Z" fill="#557086"/>
<path id="Vector_2" d="M39.764 5.05095C43.391 5.05095 46.1974 7.80755 46.1974 11.9907C46.1974 16.1739 43.365 19.0545 39.764 19.0545C37.5036 19.0545 35.8899 18.045 34.9945 16.8647V18.8339H32.1621V0.621399H34.9945V7.29069C35.8883 6.06052 37.6027 5.05095 39.764 5.05095ZM39.1432 7.48712C37.0323 7.48712 34.9961 9.13593 34.9961 12.0407C34.9961 14.9454 37.0339 16.6183 39.1432 16.6183C41.2525 16.6183 43.3163 14.9212 43.3163 11.9924C43.3163 9.06347 41.2785 7.48873 39.1432 7.48873V7.48712Z" fill="#557086"/>
<path id="Vector_3" d="M48.9938 5.36494C48.9938 2.78546 50.934 0.571487 54.8861 0.571487C58.8382 0.571487 60.7784 2.80961 60.7784 5.36494C60.7784 7.26332 59.6734 8.64966 58.2239 9.35492C60.0407 10.036 61.2448 11.6172 61.2448 13.7346C61.2448 16.971 58.5928 19.0626 54.8861 19.0626C51.1794 19.0626 48.5518 16.971 48.5518 13.7346C48.5518 11.5947 49.7543 10.0119 51.5467 9.35492C50.024 8.59975 48.9921 7.33577 48.9921 5.36494H48.9938ZM51.2282 13.6363C51.2282 15.4365 52.6029 16.7504 54.8861 16.7504C57.1693 16.7504 58.4953 15.4123 58.4953 13.6363C58.4953 11.6413 56.997 10.5706 54.8861 10.5706C52.7752 10.5706 51.2282 11.5673 51.2282 13.6363ZM58.1036 5.70468C58.1036 3.88037 56.8508 2.88368 54.8861 2.88368C52.9214 2.88368 51.6929 3.85622 51.6929 5.73044C51.6929 7.33577 53.0189 8.47899 54.8861 8.47899C56.7532 8.47899 58.1036 7.31162 58.1036 5.70629V5.70468Z" fill="#557086"/>
<path id="Vector_4" d="M62.818 5.36494C62.818 2.78546 64.7583 0.571487 68.7103 0.571487C72.6624 0.571487 74.6026 2.80961 74.6026 5.36494C74.6026 7.26332 73.4976 8.64966 72.0481 9.35492C73.8649 10.036 75.069 11.6172 75.069 13.7346C75.069 16.971 72.417 19.0626 68.7103 19.0626C65.0036 19.0626 62.376 16.971 62.376 13.7346C62.376 11.5947 63.5785 10.0119 65.3709 9.35492C63.8482 8.59975 62.8164 7.33577 62.8164 5.36494H62.818ZM65.0524 13.6363C65.0524 15.4365 66.4272 16.7504 68.7103 16.7504C70.9935 16.7504 72.3195 15.4123 72.3195 13.6363C72.3195 11.6413 70.8212 10.5706 68.7103 10.5706C66.5994 10.5706 65.0524 11.5673 65.0524 13.6363ZM71.9262 5.70468C71.9262 3.88037 70.6733 2.88368 68.7087 2.88368C66.744 2.88368 65.5155 3.85622 65.5155 5.73044C65.5155 7.33577 66.8415 8.47899 68.7087 8.47899C70.5758 8.47899 71.9262 7.31162 71.9262 5.70629V5.70468Z" fill="#557086"/>
<path id="Vector_5" d="M10.7766 6.80281C10.7311 7.80917 10.2468 8.70441 9.50744 9.305C8.87368 8.90085 8.12129 8.66255 7.31691 8.65289C7.29578 8.65289 7.27628 8.65289 7.25678 8.65289C6.45889 8.65289 5.70976 8.8767 5.07437 9.26314C4.86312 9.39034 4.66649 9.53526 4.48287 9.69788C3.75973 10.3307 3.26247 11.2066 3.11622 12.1952C3.08697 12.3933 3.07072 12.5962 3.07072 12.8023V18.8243H0.25293V12.8023C0.25293 11.9988 0.391057 11.2259 0.64781 10.5062C0.750187 10.218 0.872064 9.93458 1.01182 9.66407C1.52045 8.67382 2.26146 7.82044 3.16497 7.17637C3.38597 7.01697 3.6151 6.87205 3.85561 6.74002C4.8615 6.1829 6.02339 5.86409 7.25678 5.86409C7.2779 5.86409 7.29741 5.86409 7.31691 5.86409C8.57792 5.87375 9.75931 6.21672 10.7782 6.80603V6.80281H10.7766Z" fill="#557086"/>
<path id="Vector_6" d="M14.259 12.7991V18.8211H11.4429V13.113C12.4439 12.4851 13.2905 11.6333 13.9097 10.6318C14.1355 11.3145 14.259 12.0439 14.259 12.7974V12.7991Z" fill="#557086"/>
<path id="Vector_7" d="M3.12915 0.621399V6.33103C2.12814 6.95899 1.2815 7.81077 0.662368 8.81229C0.43649 8.12958 0.312988 7.40018 0.312988 6.64662V0.621399H3.12915Z" fill="#557086"/>
<path id="Vector_8" d="M14.3191 0.621399V6.64501C14.3191 7.77373 14.0461 8.83966 13.5618 9.78321C13.0532 10.7735 12.3122 11.6269 11.4086 12.2709C10.2565 13.0969 8.84436 13.5832 7.31684 13.5832C6.03307 13.5832 4.83055 13.2402 3.79541 12.6396C3.84091 11.6333 4.32517 10.738 5.06455 10.1374C5.71456 10.5529 6.4897 10.7912 7.31684 10.7912C8.3796 10.7912 9.35136 10.3967 10.0907 9.74618C10.8139 9.11178 11.3111 8.23746 11.4574 7.24882C11.4866 7.05077 11.5029 6.84789 11.5029 6.64179V0.621399H14.3191Z" fill="#557086"/>
<path id="Vector_9" d="M5.2046 27.6786C4.91859 27.9104 4.53021 28.0264 4.03621 28.0264H3.2172L2.89869 29.7895H2.34131L3.10019 25.5644H4.47659C4.90072 25.5644 5.21922 25.6546 5.43048 25.8333C5.64173 26.0137 5.74898 26.252 5.74898 26.5515C5.74898 26.6046 5.74086 26.6867 5.72461 26.7994C5.66285 27.1504 5.4906 27.4435 5.2046 27.6753V27.6786ZM4.83084 27.3823C5.00147 27.2422 5.11035 27.0506 5.15585 26.8042C5.16885 26.7318 5.17372 26.6642 5.17372 26.6046C5.17372 26.2053 4.91534 26.004 4.39696 26.004H3.57795L3.29682 27.5916H4.11583C4.42134 27.5916 4.66022 27.5224 4.83084 27.3823Z" fill="#557086"/>
<path id="Vector_10" d="M7.74933 26.5901C7.95246 26.4694 8.18646 26.4082 8.44647 26.4082L8.34246 26.9782H8.19621C7.90696 26.9782 7.66483 27.0555 7.47145 27.2084C7.27807 27.3614 7.14807 27.6206 7.08307 27.9845L6.75807 29.7911H6.20068L6.79382 26.4694H7.3512L7.2407 27.0989C7.37558 26.8816 7.54458 26.7109 7.74771 26.5901H7.74933Z" fill="#557086"/>
<path id="Vector_11" d="M11.5808 26.5756C11.7872 26.6835 11.9432 26.8316 12.052 27.0248C12.1609 27.2164 12.2145 27.4354 12.2145 27.6818C12.2145 27.7671 12.2048 27.8701 12.1837 27.9909C12.1674 28.0956 12.1414 28.2051 12.104 28.3178H9.42438C9.41625 28.3983 9.41138 28.4579 9.41138 28.4933C9.41138 28.7718 9.49588 28.9892 9.66488 29.1454C9.83388 29.3016 10.0549 29.3789 10.3279 29.3789C10.5684 29.3789 10.7796 29.3241 10.9617 29.2114C11.1437 29.1003 11.2802 28.9522 11.3744 28.7654H11.974C11.8278 29.0842 11.6019 29.3434 11.298 29.5447C10.9942 29.7444 10.6431 29.8442 10.2434 29.8442C9.82413 29.8442 9.48613 29.7234 9.231 29.4835C8.97587 29.2436 8.84912 28.9151 8.84912 28.4981C8.84912 28.3806 8.86212 28.255 8.8865 28.1229C8.94825 27.78 9.07175 27.4789 9.26025 27.2196C9.44713 26.9604 9.67951 26.7624 9.95414 26.6223C10.2288 26.4822 10.5278 26.4129 10.8495 26.4129C11.1307 26.4129 11.3744 26.4661 11.5808 26.574V26.5756ZM11.6393 27.6946C11.6393 27.4354 11.5564 27.2357 11.3923 27.094C11.2265 26.9524 11.012 26.8815 10.7471 26.8815C10.4611 26.8815 10.2028 26.9733 9.97039 27.1568C9.73801 27.3404 9.58038 27.5948 9.49913 27.9168H11.6214C11.6344 27.8363 11.6393 27.7607 11.6393 27.693V27.6946Z" fill="#557086"/>
<path id="Vector_12" d="M14.4375 25.7641C14.3221 25.8591 14.2441 26.0153 14.2084 26.2342L14.1661 26.4709H14.8698L14.7902 26.925H14.0865L13.573 29.7911H13.0156L13.5226 26.925H13.0936L13.1733 26.4709H13.6023L13.6445 26.2342C13.7144 25.8623 13.8606 25.5902 14.0849 25.4195C14.3091 25.2472 14.6358 25.1619 15.0632 25.1619L14.9835 25.6224C14.7349 25.6224 14.5529 25.6691 14.4359 25.7641H14.4375Z" fill="#557086"/>
<path id="Vector_13" d="M18.0227 26.5756C18.2291 26.6835 18.3851 26.8316 18.4939 27.0248C18.6028 27.2164 18.6564 27.4354 18.6564 27.6818C18.6564 27.7671 18.6467 27.8701 18.6256 27.9909C18.6093 28.0956 18.5833 28.2051 18.5459 28.3178H15.8663C15.8581 28.3983 15.8533 28.4579 15.8533 28.4933C15.8533 28.7718 15.9378 28.9892 16.1068 29.1454C16.2758 29.3016 16.4968 29.3789 16.7698 29.3789C17.0103 29.3789 17.2215 29.3241 17.4035 29.2114C17.5855 29.1003 17.7221 28.9522 17.8163 28.7654H18.4159C18.2697 29.0842 18.0438 29.3434 17.7399 29.5447C17.436 29.7444 17.085 29.8442 16.6853 29.8442C16.266 29.8442 15.928 29.7234 15.6729 29.4835C15.4178 29.2436 15.291 28.9151 15.291 28.4981C15.291 28.3806 15.304 28.255 15.3284 28.1229C15.3901 27.78 15.5136 27.4789 15.7021 27.2196C15.889 26.9604 16.1214 26.7624 16.396 26.6223C16.6707 26.4822 16.9697 26.4129 17.2914 26.4129C17.5725 26.4129 17.8163 26.4661 18.0227 26.574V26.5756ZM18.0812 27.6946C18.0812 27.4354 17.9983 27.2357 17.8342 27.094C17.6684 26.9524 17.4539 26.8815 17.189 26.8815C16.903 26.8815 16.6447 26.9733 16.4123 27.1568C16.1799 27.3404 16.0223 27.5948 15.941 27.9168H18.0633C18.0763 27.8363 18.0812 27.7607 18.0812 27.693V27.6946Z" fill="#557086"/>
<path id="Vector_14" d="M20.9002 26.5901C21.1033 26.4694 21.3373 26.4082 21.5973 26.4082L21.4933 26.9782H21.3471C21.0578 26.9782 20.8157 27.0555 20.6223 27.2084C20.429 27.3614 20.299 27.6206 20.2339 27.9845L19.9089 29.7911H19.3516L19.9447 26.4694H20.5021L20.3916 27.0989C20.5265 26.8816 20.6955 26.7109 20.8986 26.5901H20.9002Z" fill="#557086"/>
<path id="Vector_15" d="M23.5003 26.5901C23.7034 26.4694 23.9358 26.4082 24.1974 26.4082L24.0934 26.9782H23.9472C23.6579 26.9782 23.4158 27.0555 23.2224 27.2084C23.0291 27.3614 22.899 27.6206 22.834 27.9845L22.509 29.7911H21.9517L22.5448 26.4694H23.1022L22.9917 27.0989C23.1266 26.8816 23.2956 26.7109 23.4987 26.5901H23.5003Z" fill="#557086"/>
<path id="Vector_16" d="M27.3322 26.5756C27.5386 26.6835 27.6946 26.8316 27.8035 27.0248C27.9124 27.2164 27.966 27.4354 27.966 27.6818C27.966 27.7671 27.9563 27.8701 27.9351 27.9909C27.9189 28.0956 27.8929 28.2051 27.8555 28.3178H25.1758C25.1677 28.3983 25.1628 28.4579 25.1628 28.4933C25.1628 28.7718 25.2473 28.9892 25.4163 29.1454C25.5854 29.3016 25.8064 29.3789 26.0794 29.3789C26.3199 29.3789 26.5311 29.3241 26.7131 29.2114C26.8951 29.1003 27.0316 28.9522 27.1259 28.7654H27.7255C27.5793 29.0842 27.3534 29.3434 27.0495 29.5447C26.7456 29.7444 26.3946 29.8442 25.9949 29.8442C25.5756 29.8442 25.2376 29.7234 24.9825 29.4835C24.7273 29.2436 24.6006 28.9151 24.6006 28.4981C24.6006 28.3806 24.6136 28.255 24.638 28.1229C24.6997 27.78 24.8232 27.4789 25.0117 27.2196C25.1986 26.9604 25.431 26.7624 25.7056 26.6223C25.9802 26.4822 26.2792 26.4129 26.601 26.4129C26.8821 26.4129 27.1259 26.4661 27.3322 26.574V26.5756ZM27.3907 27.6946C27.3907 27.4354 27.3079 27.2357 27.1437 27.094C26.978 26.9524 26.7635 26.8815 26.4986 26.8815C26.2126 26.8815 25.9542 26.9733 25.7219 27.1568C25.4895 27.3404 25.3318 27.5948 25.2506 27.9168H27.3729C27.3859 27.8363 27.3907 27.7607 27.3907 27.693V27.6946Z" fill="#557086"/>
<path id="Vector_17" d="M29.1183 27.2245C29.3036 26.9684 29.5311 26.7688 29.8008 26.6271C30.0706 26.4854 30.355 26.4145 30.6572 26.4145C30.914 26.4145 31.1447 26.4741 31.3479 26.5933C31.551 26.7124 31.6972 26.8686 31.7817 27.0634L32.0937 25.3051H32.656L31.8549 29.7911H31.2926L31.408 29.1663C31.265 29.3644 31.0732 29.527 30.8327 29.6542C30.5922 29.7814 30.3273 29.8458 30.0381 29.8458C29.7765 29.8458 29.5473 29.7911 29.3475 29.6783C29.1476 29.5656 28.9916 29.4094 28.8795 29.2017C28.7673 28.994 28.7104 28.7573 28.7104 28.4868C28.7104 28.3661 28.7235 28.2421 28.7478 28.1165C28.8096 27.7767 28.9315 27.4789 29.1183 27.2228V27.2245ZM31.6176 27.8508C31.6176 27.5562 31.5282 27.3227 31.3511 27.1504C31.174 26.9781 30.9481 26.8928 30.6751 26.8928C30.4671 26.8928 30.2688 26.9411 30.0787 27.0377C29.8886 27.1343 29.7277 27.276 29.5928 27.4612C29.458 27.6463 29.3686 27.8653 29.3231 28.1165C29.3068 28.2018 29.2987 28.2936 29.2987 28.395C29.2987 28.6945 29.3865 28.9296 29.562 29.1019C29.7375 29.2742 29.9617 29.3595 30.2347 29.3595C30.4427 29.3595 30.641 29.3096 30.8311 29.2114C31.0212 29.1132 31.1837 28.9683 31.3202 28.7815C31.4567 28.5947 31.5477 28.3741 31.5932 28.1245C31.6095 28.0392 31.6176 27.949 31.6176 27.8524V27.8508Z" fill="#557086"/>
<path id="Vector_18" d="M37.9484 28.8524H36.0829L35.5759 29.7911H34.9893L37.2773 25.5902H37.9192L38.7089 29.7911H38.1223L37.9517 28.8524H37.9484ZM37.8688 28.4208L37.4772 26.2632L36.3153 28.4208H37.8688Z" fill="#557086"/>
<path id="Vector_19" d="M42.414 26.603C42.609 26.7286 42.7423 26.8864 42.8121 27.0764L42.9226 26.471H43.4849L42.8788 29.8652C42.8251 30.1679 42.713 30.4384 42.5391 30.6751C42.3653 30.9118 42.1459 31.0969 41.881 31.229C41.6161 31.3626 41.322 31.4286 41.0002 31.4286C40.5599 31.4286 40.2105 31.324 39.9537 31.1163C39.697 30.9086 39.5718 30.6284 39.58 30.2774H40.1357C40.1601 30.4786 40.2576 30.6413 40.4266 30.7653C40.5956 30.8876 40.815 30.9504 41.0847 30.9504C41.3902 30.9504 41.6584 30.8554 41.8859 30.6654C42.1134 30.4754 42.2596 30.2081 42.3198 29.8652L42.4416 29.168C42.2954 29.3612 42.102 29.5238 41.8631 29.6526C41.6242 29.7814 41.361 29.8475 41.0701 29.8475C40.8085 29.8475 40.5794 29.7927 40.3795 29.68C40.1796 29.5673 40.0236 29.4111 39.9115 29.2034C39.7993 28.9957 39.7425 28.759 39.7425 28.4885C39.7425 28.3677 39.7555 28.2437 39.7798 28.1181C39.8416 27.7784 39.9635 27.4805 40.1503 27.2245C40.3356 26.9685 40.5615 26.7688 40.8296 26.6271C41.0961 26.4854 41.3805 26.4146 41.6827 26.4146C41.985 26.4146 42.2141 26.4774 42.4108 26.603H42.414ZM42.6529 27.8509C42.6529 27.5562 42.5635 27.3227 42.3864 27.1504C42.2092 26.9782 41.9834 26.8928 41.7104 26.8928C41.5024 26.8928 41.3041 26.9411 41.114 27.0377C40.9239 27.1343 40.763 27.276 40.6281 27.4612C40.4932 27.6464 40.4038 27.8654 40.3583 28.1165C40.3421 28.2019 40.334 28.2937 40.334 28.3951C40.334 28.6946 40.4217 28.9297 40.5972 29.102C40.7727 29.2742 40.997 29.3596 41.27 29.3596C41.478 29.3596 41.6762 29.3097 41.8664 29.2114C42.0565 29.1132 42.219 28.9683 42.3555 28.7815C42.492 28.5948 42.583 28.3742 42.6285 28.1246C42.6448 28.0392 42.6529 27.9491 42.6529 27.8525V27.8509Z" fill="#557086"/>
<path id="Vector_20" d="M46.8666 26.603C47.0633 26.7286 47.1949 26.8864 47.2648 27.0764L47.3753 26.471H47.9375L47.3314 29.8652C47.2778 30.1679 47.1656 30.4384 46.9918 30.6751C46.8179 30.9118 46.5985 31.0969 46.3336 31.229C46.0688 31.3626 45.7746 31.4286 45.4529 31.4286C45.0125 31.4286 44.6631 31.324 44.4064 31.1163C44.1496 30.9086 44.0245 30.6284 44.0326 30.2774H44.59C44.6144 30.4786 44.7119 30.6413 44.8809 30.7653C45.0499 30.8876 45.2692 30.9504 45.539 30.9504C45.8445 30.9504 46.1126 30.8554 46.3401 30.6654C46.5693 30.4754 46.7139 30.2081 46.774 29.8652L46.8959 29.168C46.7496 29.3612 46.5563 29.5238 46.3174 29.6526C46.0785 29.7814 45.8152 29.8475 45.5244 29.8475C45.2627 29.8475 45.0336 29.7927 44.8337 29.68C44.6339 29.5689 44.4779 29.4111 44.3657 29.2034C44.2536 28.9973 44.1967 28.759 44.1967 28.4885C44.1967 28.3677 44.2097 28.2437 44.2341 28.1181C44.2959 27.7784 44.4194 27.4805 44.6046 27.2245C44.7899 26.9685 45.0157 26.7688 45.2839 26.6271C45.5504 26.4854 45.8347 26.4146 46.137 26.4146C46.4393 26.4146 46.67 26.4774 46.865 26.603H46.8666ZM47.1055 27.8509C47.1055 27.5562 47.0161 27.3227 46.839 27.1504C46.6619 26.9782 46.436 26.8928 46.163 26.8928C45.955 26.8928 45.7567 26.9411 45.5666 27.0377C45.3765 27.1343 45.2156 27.276 45.0807 27.4612C44.9459 27.6464 44.8565 27.8654 44.811 28.1165C44.7947 28.2019 44.7866 28.2937 44.7866 28.3951C44.7866 28.6946 44.8744 28.9297 45.0499 29.102C45.2254 29.2742 45.4496 29.3596 45.7226 29.3596C45.9306 29.3596 46.1289 29.3097 46.319 29.2114C46.5091 29.1132 46.6716 28.9683 46.8081 28.7815C46.9446 28.5948 47.0356 28.3742 47.0795 28.1246C47.0958 28.0392 47.1039 27.9491 47.1039 27.8525L47.1055 27.8509Z" fill="#557086"/>
<path id="Vector_21" d="M50.1527 26.5901C50.3558 26.4694 50.5898 26.4082 50.8498 26.4082L50.7458 26.9782H50.5995C50.3103 26.9782 50.0681 27.0555 49.8748 27.2084C49.6814 27.3614 49.5514 27.6206 49.4864 27.9845L49.1614 29.7911H48.604L49.1971 26.4694H49.7545L49.644 27.0989C49.7789 26.8816 49.9479 26.7109 50.151 26.5901H50.1527Z" fill="#557086"/>
<path id="Vector_22" d="M53.9841 26.5756C54.1905 26.6835 54.3465 26.8316 54.4554 27.0248C54.5642 27.2164 54.6179 27.4354 54.6179 27.6818C54.6179 27.7671 54.6081 27.8701 54.587 27.9909C54.5707 28.0956 54.5447 28.2051 54.5074 28.3178H51.8277C51.8196 28.3983 51.8147 28.4579 51.8147 28.4933C51.8147 28.7718 51.8992 28.9892 52.0682 29.1454C52.2372 29.3016 52.4582 29.3789 52.7312 29.3789C52.9717 29.3789 53.183 29.3241 53.365 29.2114C53.547 29.1003 53.6835 28.9522 53.7777 28.7654H54.3774C54.2311 29.0842 54.0052 29.3434 53.7014 29.5447C53.3975 29.7444 53.0465 29.8442 52.6467 29.8442C52.2275 29.8442 51.8895 29.7234 51.6343 29.4835C51.3792 29.2436 51.2524 28.9151 51.2524 28.4981C51.2524 28.3806 51.2654 28.255 51.2898 28.1229C51.3516 27.78 51.4751 27.4789 51.6636 27.2196C51.8504 26.9604 52.0828 26.7624 52.3575 26.6223C52.6321 26.4822 52.9311 26.4129 53.2528 26.4129C53.534 26.4129 53.7777 26.4661 53.9841 26.574V26.5756ZM54.0426 27.6946C54.0426 27.4354 53.9597 27.2357 53.7956 27.094C53.6298 26.9524 53.4153 26.8815 53.1505 26.8815C52.8645 26.8815 52.6061 26.9733 52.3737 27.1568C52.1413 27.3404 51.9837 27.5948 51.9025 27.9168H54.0247C54.0377 27.8363 54.0426 27.7607 54.0426 27.693V27.6946Z" fill="#557086"/>
<path id="Vector_23" d="M58.0307 26.603C58.2257 26.7286 58.359 26.8864 58.4288 27.0764L58.5393 26.471H59.1016L58.4955 29.8652C58.4418 30.1679 58.3297 30.4384 58.1558 30.6751C57.982 30.9118 57.7626 31.0969 57.4977 31.229C57.2328 31.3626 56.9387 31.4286 56.6169 31.4286C56.1766 31.4286 55.8272 31.324 55.5704 31.1163C55.3137 30.9086 55.1885 30.6284 55.1967 30.2774H55.7524C55.7768 30.4786 55.8743 30.6413 56.0433 30.7653C56.2123 30.8876 56.4317 30.9504 56.7014 30.9504C57.0069 30.9504 57.2751 30.8554 57.5026 30.6654C57.7301 30.4754 57.8763 30.2081 57.9365 29.8652L58.0583 29.168C57.9121 29.3612 57.7187 29.5238 57.4798 29.6526C57.2409 29.7814 56.9777 29.8475 56.6868 29.8475C56.4252 29.8475 56.1961 29.7927 55.9962 29.68C55.7963 29.5673 55.6403 29.4111 55.5282 29.2034C55.416 28.9957 55.3592 28.759 55.3592 28.4885C55.3592 28.3677 55.3722 28.2437 55.3965 28.1181C55.4583 27.7784 55.5802 27.4805 55.767 27.2245C55.9523 26.9685 56.1782 26.7688 56.4463 26.6271C56.7128 26.4854 56.9972 26.4146 57.2994 26.4146C57.6017 26.4146 57.8308 26.4774 58.0275 26.603H58.0307ZM58.2696 27.8509C58.2696 27.5562 58.1802 27.3227 58.0031 27.1504C57.8259 26.9782 57.6001 26.8928 57.3271 26.8928C57.1191 26.8928 56.9208 26.9411 56.7307 27.0377C56.5406 27.1343 56.3797 27.276 56.2448 27.4612C56.1099 27.6464 56.0205 27.8654 55.975 28.1165C55.9588 28.2019 55.9507 28.2937 55.9507 28.3951C55.9507 28.6946 56.0384 28.9297 56.2139 29.102C56.3894 29.2742 56.6137 29.3596 56.8867 29.3596C57.0947 29.3596 57.2929 29.3097 57.4831 29.2114C57.6732 29.1132 57.8357 28.9683 57.9722 28.7815C58.1087 28.5948 58.1997 28.3742 58.2452 28.1246C58.2615 28.0392 58.2696 27.9491 58.2696 27.8525V27.8509Z" fill="#557086"/>
<path id="Vector_24" d="M60.2245 27.2245C60.4097 26.9685 60.6356 26.7688 60.9037 26.6271C61.1702 26.4854 61.4546 26.4146 61.7569 26.4146C62.0591 26.4146 62.2931 26.4774 62.4849 26.603C62.6766 26.7286 62.8099 26.8864 62.883 27.0764L62.9935 26.471H63.5558L62.9626 29.7927H62.4004L62.5174 29.1744C62.3711 29.3692 62.1761 29.5286 61.9356 29.6559C61.6951 29.7831 61.4302 29.8475 61.141 29.8475C60.8793 29.8475 60.6502 29.7927 60.4503 29.68C60.2505 29.5673 60.0961 29.4111 59.9856 29.2034C59.8751 28.9973 59.8198 28.759 59.8198 28.4885C59.8198 28.3677 59.8328 28.2437 59.8572 28.1181C59.919 27.7784 60.0425 27.4805 60.2277 27.2245H60.2245ZM62.7221 27.8509C62.7221 27.5562 62.6327 27.3227 62.4556 27.1504C62.2785 26.9782 62.0526 26.8928 61.7796 26.8928C61.5716 26.8928 61.3734 26.9411 61.1832 27.0377C60.9931 27.1343 60.8322 27.276 60.6973 27.4612C60.5625 27.6464 60.4731 27.8654 60.4276 28.1165C60.4113 28.2019 60.4032 28.2937 60.4032 28.3951C60.4032 28.6946 60.491 28.9297 60.6665 29.102C60.842 29.2742 61.0662 29.3596 61.3392 29.3596C61.5472 29.3596 61.7455 29.3097 61.9356 29.2114C62.1257 29.1132 62.2882 28.9683 62.4247 28.7815C62.5612 28.5948 62.6522 28.3742 62.6961 28.1246C62.7124 28.0392 62.7205 27.9491 62.7205 27.8525L62.7221 27.8509Z" fill="#557086"/>
<path id="Vector_25" d="M65.0652 28.8813C65.0522 28.9425 65.0473 28.994 65.0473 29.0391C65.0473 29.1406 65.0782 29.213 65.1416 29.2581C65.205 29.3032 65.3073 29.3241 65.4503 29.3241H65.8599L65.7737 29.7911H65.2716C65.0067 29.7911 64.8068 29.7411 64.6752 29.6397C64.542 29.5383 64.477 29.3724 64.477 29.1422C64.477 29.0536 64.4851 28.9667 64.5013 28.8813L64.8507 26.9234H64.4233L64.503 26.4693H64.9368L65.0831 25.632H65.6454L65.4991 26.4693H66.3685L66.2889 26.9234H65.4146L65.0652 28.8813Z" fill="#557086"/>
<path id="Vector_26" d="M67.4963 29.6735C67.2818 29.5592 67.1161 29.3966 66.9974 29.1889C66.8788 28.9812 66.8203 28.7396 66.8203 28.4643C66.8203 28.0891 66.9081 27.7446 67.0836 27.4306C67.2591 27.1182 67.5012 26.8702 67.8083 26.6883C68.1155 26.5063 68.46 26.4162 68.8386 26.4162C69.1197 26.4162 69.37 26.4741 69.5877 26.5885C69.8055 26.7044 69.9745 26.8654 70.0947 27.0731C70.215 27.2808 70.2751 27.524 70.2751 27.8041C70.2751 28.1793 70.1857 28.5239 70.0054 28.8346C69.825 29.1454 69.5812 29.3917 69.2708 29.5737C68.9605 29.7556 68.616 29.8458 68.2373 29.8458C67.9562 29.8458 67.7076 29.7878 67.4947 29.6735H67.4963ZM69.0238 29.1631C69.2351 29.0198 69.4025 28.8298 69.5227 28.5931C69.643 28.3564 69.7031 28.1036 69.7031 27.8331C69.7031 27.5256 69.6137 27.2905 69.4333 27.1263C69.2546 26.962 69.0303 26.8815 68.7606 26.8815C68.4908 26.8815 68.2585 26.954 68.0505 27.0973C67.8424 27.2406 67.6816 27.4322 67.5678 27.6705C67.4541 27.9088 67.3972 28.1648 67.3972 28.4401C67.3972 28.7396 67.4833 28.9699 67.6539 29.1341C67.8246 29.2984 68.044 29.3789 68.3088 29.3789C68.5737 29.3789 68.8126 29.3064 69.0238 29.1631Z" fill="#557086"/>
<path id="Vector_27" d="M72.5467 26.5901C72.7498 26.4694 72.9822 26.4082 73.2438 26.4082L73.1398 26.9782H72.9936C72.7043 26.9782 72.4622 27.0555 72.2688 27.2084C72.0754 27.3614 71.9454 27.6206 71.8804 27.9845L71.5554 29.7911H70.998L71.5912 26.4694H72.1486L72.0381 27.0989C72.1729 26.8816 72.3419 26.7109 72.5451 26.5901H72.5467Z" fill="#557086"/>
</g>
</svg>
