<svg fill="currentColor" viewBox="0 0 64 64" class="svg-icon " style=""> <title></title> <path d="M32 0C14.336 0 0 14.336 0 32s14.336 32 32 32 32-14.336 32-32S49.664 0 32 0Zm25.408 28.8H46.336c-.352-8.096-2.08-15.328-4.672-20.512 8.416 3.424 14.592 11.2 15.744 20.512ZM6.592 35.2h11.072c.352 8.096 2.08 15.328 4.672 20.512A25.655 25.655 0 0 1 6.592 35.2Zm11.072-6.4H6.592c1.152-9.312 7.328-17.088 15.744-20.512-2.592 5.184-4.288 12.416-4.672 20.512ZM36.352 52c-1.088 2.4-2.208 3.968-3.136 4.832-.448.416-.768.608-.96.704-.16.064-.224.064-.256.064s-.096 0-.256-.064c-.192-.096-.512-.288-.96-.704-.928-.864-2.048-2.432-3.136-4.832-1.856-4.16-3.232-10.016-3.584-16.8h15.84c-.32 6.784-1.696 12.64-3.552 16.8ZM24.064 28.8c.32-6.784 1.696-12.64 3.584-16.8 1.088-2.4 2.208-3.968 3.136-4.832.448-.416.768-.608.96-.704.16-.064.224-.064.256-.064s.096 0 .256.064c.192.096.512.288.96.704.928.864 2.048 2.432 3.136 4.832 1.856 4.16 3.232 10.016 3.584 16.8H24.064Zm17.6 26.912c2.56-5.184 4.288-12.416 4.672-20.512h11.072c-1.152 9.312-7.328 17.088-15.744 20.512Z"></path></svg>